HIERARCHY
ROOT SimulationBone
{
	OFFSET 0.000000 0.000000 0.000000
	CHANNELS 6 Xposition Yposition Zposition Zrotation Yrotation Xrotation 
	JOINT Hips
	{
		OFFSET 0.000000 0.000000 0.000000
		CHANNELS 6 Xposition Yposition Zposition Zrotation Yrotation Xrotation 
		JOINT RightUpLeg
		{
			OFFSET 0.103454 1.857841 10.548502
			CHANNELS 3 Zrotation Yrotation Xrotation
			JOINT RightLeg
			{
				OFFSET 43.500000 -0.000034 -0.000004
				CHANNELS 3 Zrotation Yrotation Xrotation
				JOINT RightFoot
				{
					OFFSET 42.372192 0.000027 -0.000002
					CHANNELS 3 Zrotation Yrotation Xrotation
					JOINT RightToe
					{
						OFFSET 17.300003 0.000001 0.000001
						CHANNELS 3 Zrotation Yrotation Xrotation
						End Site
						{
							OFFSET 0.000000 0.000000 0.000000
						}
					}
				}
			}
		}
		JOINT LeftUpLeg
		{
			OFFSET 0.103461 1.857837 -10.548502
			CHANNELS 3 Zrotation Yrotation Xrotation
			JOINT LeftLeg
			{
				OFFSET 43.500046 -0.000034 0.000013
				CHANNELS 3 Zrotation Yrotation Xrotation
				JOINT LeftFoot
				{
					OFFSET 42.372261 0.000004 0.000013
					CHANNELS 3 Zrotation Yrotation Xrotation
					JOINT LeftToe
					{
						OFFSET 17.299986 -0.000008 0.000013
						CHANNELS 3 Zrotation Yrotation Xrotation
						End Site
						{
							OFFSET 0.000000 0.000000 0.000000
						}
					}
				}
			}
		}
		JOINT Spine
		{
			OFFSET 6.901964 -2.603740 0.000003
			CHANNELS 3 Zrotation Yrotation Xrotation
			JOINT Spine1
			{
				OFFSET 12.588108 0.000020 -0.000003
				CHANNELS 3 Zrotation Yrotation Xrotation
				JOINT Spine2
				{
					OFFSET 12.343194 -0.000020 0.000000
					CHANNELS 3 Zrotation Yrotation Xrotation
					JOINT Neck
					{
						OFFSET 25.832893 -0.000004 0.000001
						CHANNELS 3 Zrotation Yrotation Xrotation
						JOINT Head
						{
							OFFSET 11.766617 0.000023 0.000000
							CHANNELS 3 Zrotation Yrotation Xrotation
							End Site
							{
								OFFSET 0.000000 0.000000 0.000000
							}
						}
					}
					JOINT RightShoulder
					{
						OFFSET 19.745911 -1.480362 6.000106
						CHANNELS 3 Zrotation Yrotation Xrotation
						JOINT RightArm
						{
							OFFSET 11.284124 -0.000010 -0.000029
							CHANNELS 3 Zrotation Yrotation Xrotation
							JOINT RightForeArm
							{
								OFFSET 33.000050 0.000006 0.000043
								CHANNELS 3 Zrotation Yrotation Xrotation
								JOINT RightHand
								{
									OFFSET 25.200006 0.000015 0.000002
									CHANNELS 3 Zrotation Yrotation Xrotation
									End Site
									{
										OFFSET 0.000000 0.000000 0.000000
									}
								}
							}
						}
					}
					JOINT LeftShoulder
					{
						OFFSET 19.746103 -1.480366 -6.000076
						CHANNELS 3 Zrotation Yrotation Xrotation
						JOINT LeftArm
						{
							OFFSET 11.284135 -0.000031 -0.000006
							CHANNELS 3 Zrotation Yrotation Xrotation
							JOINT LeftForeArm
							{
								OFFSET 33.000095 0.000024 0.000006
								CHANNELS 3 Zrotation Yrotation Xrotation
								JOINT LeftHand
								{
									OFFSET 25.199774 0.000153 0.000421
									CHANNELS 3 Zrotation Yrotation Xrotation
									End Site
									{
										OFFSET 0.000000 0.000000 0.000000
									}
								}
							}
						}
					}
				}
			}
		}
	}
}
MOTION
Frames: 13
Frame Time: 0.016667
-289.448272 0.000000 524.349774 0.000000 46.370610 0.000000 -2.000556 86.085592 -1.261967 94.157059 -2.179218 -175.702282 162.126754 -17.631233 -176.313077 -29.302955 -3.551302 -3.929441 72.203585 -0.130462 -9.641122 21.454561 0.003094 0.000015 165.150586 9.626244 171.873671 -42.324976 3.299174 1.350488 89.616284 0.229494 7.726946 21.454552 -0.003087 0.000000 10.684076 0.651599 -1.201593 11.341686 1.417929 -2.333579 11.023785 1.403677 -2.342108 14.819765 -7.162974 -21.519488 -23.803004 14.815766 -29.468895 -173.058303 -73.223698 -8.528659 11.134833 60.007997 24.526341 -66.690520 -18.982659 2.665551 1.270895 -8.936086 35.932060 -174.404593 74.835966 7.200589 -20.729022 -55.634953 -13.534836 -85.086198 8.727017 -2.698642 -7.961265 0.087479 -61.163678 
-289.478878 0.000000 524.466082 0.000000 46.638879 0.000000 -2.002311 86.257492 -1.298896 94.074010 -2.082228 -175.991245 161.967568 -17.715702 -177.302900 -32.099494 -3.611796 -3.755781 72.199443 -0.497740 -10.389971 21.454560 0.003083 0.000015 165.348348 9.408094 171.481052 -41.625146 3.293562 1.649363 89.496453 0.080600 8.037415 21.454553 -0.003095 0.000000 10.624126 0.664210 -1.147728 11.222284 1.436678 -2.225675 10.904361 1.423074 -2.234316 14.999674 -7.262296 -21.641900 -23.620423 14.902243 -29.598549 -172.509991 -73.094652 -9.090735 12.914154 60.350675 25.270261 -69.404850 -18.048143 2.715703 0.525469 -9.171726 36.784290 -174.655204 75.094880 6.946340 -20.119674 -54.893716 -14.302432 -83.614758 9.409639 -2.681948 -7.230122 0.582923 -60.201553 
-289.540610 0.000000 524.521280 0.000000 46.889018 0.000000 -1.994665 86.369501 -1.299165 94.078545 -1.961589 -176.439530 161.993372 -17.849216 -178.007334 -35.332428 -3.573133 -2.798152 72.495293 -1.078345 -10.075372 21.454560 0.003093 0.000014 165.480943 9.246551 171.446067 -41.205522 3.109582 1.622262 89.655928 0.161459 8.472775 21.454555 -0.003098 -0.000001 10.567413 0.663742 -1.110231 11.109351 1.431076 -2.151664 10.791407 1.417921 -2.160268 15.404074 -7.167693 -21.643082 -23.708357 14.810202 -29.563158 -171.941243 -73.103639 -9.674622 15.033450 60.769429 26.107964 -71.929136 -16.860276 2.740947 -0.116966 -8.905932 37.911589 -175.305785 75.109906 6.280698 -19.635644 -53.792104 -15.139682 -82.198117 10.054134 -2.665248 -6.041953 0.861685 -59.391875 
-289.632069 0.000000 524.515441 0.000000 47.109243 0.000000 -1.970668 86.400436 -1.285576 94.169623 -1.727320 -176.940018 162.226459 -17.936210 -178.244660 -38.691597 -3.326779 -1.899015 73.196240 -1.550619 -9.659141 21.454560 0.003109 0.000015 165.593224 9.108703 171.460588 -41.004985 3.051667 1.439657 90.046706 0.348143 9.040157 21.454558 -0.003099 -0.000002 10.522811 0.685096 -1.080142 11.020221 1.470012 -2.090197 10.702247 1.457232 -2.099034 15.831538 -6.947963 -21.568892 -23.900488 14.596674 -29.412662 -171.668198 -73.126624 -9.955001 17.303680 61.191984 26.943477 -74.203946 -15.553958 2.743357 -0.888851 -8.482724 39.436043 -175.737106 74.979436 5.837922 -19.336780 -52.561901 -15.900083 -80.918869 10.659835 -2.651855 -4.581386 0.888664 -59.146357 
-289.749887 0.000000 524.451217 0.000000 47.287365 0.000000 -1.926134 86.337808 -1.278179 94.326791 -1.306869 -177.404012 162.664084 -17.929182 -177.951425 -41.882697 -2.923157 -1.851207 74.289055 -1.651732 -10.172018 21.454558 0.003115 0.000017 165.720613 8.954482 171.233700 -40.935818 3.367491 1.270204 90.565578 0.521565 9.729815 21.454557 -0.003101 -0.000003 10.494847 0.759905 -1.050492 10.963641 1.615985 -2.024353 10.645622 1.603599 -2.034073 16.094505 -6.726283 -21.449943 -24.022754 14.348520 -29.192261 -171.901092 -73.021273 -9.715480 19.482656 61.543472 27.734873 -76.175122 -14.319487 2.741518 -1.958185 -8.275822 41.384819 -175.502060 74.856005 6.077245 -19.224853 -51.470491 -16.453486 -79.837391 11.221584 -2.644336 -3.079372 0.703020 -59.751787 
-289.890207 0.000000 524.331080 0.000000 47.416550 0.000000 -1.880144 86.236183 -1.235324 94.525798 -0.846555 -177.880768 163.378193 -17.916703 -177.542038 -44.561068 -2.604881 -2.392090 75.297172 -1.486676 -11.237132 21.454557 0.003113 0.000019 165.859246 8.857304 171.095337 -40.913382 3.747655 0.960020 91.019721 0.801894 10.488045 21.454555 -0.003101 -0.000002 10.485623 0.852581 -1.031076 10.944228 1.798919 -1.977020 10.626162 1.786811 -1.987848 16.195137 -6.548166 -21.245850 -24.081932 14.093751 -28.873408 -172.110097 -72.811800 -9.499930 21.244915 61.856186 28.515568 -77.793292 -13.323250 2.741299 -2.984913 -8.213274 43.367578 -175.017204 74.811406 6.573196 -19.164653 -50.610738 -16.739399 -78.943339 11.714715 -2.640158 -1.696665 0.309782 -60.845899 
-290.049964 0.000000 524.159936 0.000000 47.496252 0.000000 -1.850477 86.158482 -1.116442 94.730025 -0.499324 -178.418336 164.383536 -17.982227 -177.418392 -46.405108 -2.557146 -3.080213 75.775734 -1.236684 -12.258410 21.454557 0.003108 0.000018 165.997911 8.881431 171.354316 -40.839633 3.885839 0.388387 91.214946 1.279702 11.179745 21.454553 -0.003095 -0.000000 10.491001 0.922287 -1.033719 10.954007 1.938349 -1.975654 10.635912 1.926242 -1.987328 16.178693 -6.399636 -20.917545 -24.112189 13.817932 -28.413224 -171.816599 -72.579719 -9.800398 22.353747 62.184737 29.311170 -79.033944 -12.668720 2.748153 -3.626630 -8.167560 45.038223 -174.764980 74.865547 6.831890 -19.017285 -50.005296 -16.754644 -78.200102 12.121510 -2.636266 -0.570817 -0.228150 -61.958453 
-290.227319 0.000000 523.946584 0.000000 47.528202 0.000000 -1.831402 86.133980 -0.943271 94.847317 -0.228261 -178.900063 165.393099 -18.077294 -177.447959 -47.273514 -2.778680 -3.888213 75.878346 -0.883913 -13.140811 21.454557 0.003104 0.000018 166.142070 8.948811 171.613380 -40.564349 4.043030 -0.110044 91.022529 1.669984 11.382988 21.454553 -0.003090 0.000001 10.484602 0.974396 -1.061794 10.939997 2.044878 -2.026915 10.621893 2.032458 -2.039235 16.074007 -6.106024 -20.505179 -24.077093 13.394019 -27.787194 -171.393979 -72.461794 -10.234203 22.988129 62.561587 30.017775 -79.966139 -12.228509 2.759099 -4.072233 -8.082984 46.664176 -174.719422 74.903757 6.878834 -18.735196 -49.574724 -16.691701 -77.536546 12.472409 -2.632656 0.175596 -0.484568 -62.833245 
-290.417888 0.000000 523.702567 0.000000 47.515116 0.000000 -1.811495 86.173350 -0.759837 94.814784 0.039827 -179.207131 166.122401 -18.150446 -177.448441 -47.202623 -3.177365 -4.831898 75.877445 -0.403769 -13.910535 21.454555 0.003104 0.000020 166.311013 8.974663 171.468233 -39.981364 4.501505 -0.215789 90.390470 1.699698 10.783490 21.454552 -0.003092 0.000001 10.447734 1.024774 -1.113269 10.864573 2.149612 -2.125645 10.546476 2.136599 -2.138598 15.904547 -5.542894 -20.059305 -23.965947 12.740558 -27.007760 -171.266397 -72.556945 -10.365649 23.346824 62.982913 30.536431 -80.661353 -11.856020 2.763290 -4.592148 -7.933358 48.476103 -174.707904 74.823905 6.889897 -18.302289 -49.258765 -16.702451 -76.920383 12.794809 -2.629202 0.486533 -0.150153 -63.313142 
-290.613824 0.000000 523.438426 0.000000 47.461906 0.000000 -1.781878 86.246490 -0.626019 94.743887 0.340958 -179.376550 166.603450 -18.242488 -177.585069 -46.767018 -3.480886 -5.635143 75.934320 0.006215 -14.587939 21.454553 0.003108 0.000021 166.567728 8.981014 171.194935 -39.200490 5.064300 -0.136052 89.539701 1.546384 9.784368 21.454551 -0.003094 0.000001 10.414661 1.085167 -1.172759 10.796338 2.275073 -2.239443 10.478246 2.261377 -2.253152 15.678942 -4.947311 -19.588788 -23.924464 12.077293 -26.208173 -171.333396 -72.747098 -10.297488 23.282058 63.330086 30.904146 -81.115066 -11.556943 2.762269 -5.264650 -7.830822 49.949316 -174.468740 74.712874 7.133817 -17.715889 -49.178792 -16.596558 -76.510788 13.055831 -2.629549 0.609419 0.262135 -63.462230 
-290.811199 0.000000 523.154620 0.000000 47.373952 0.000000 -1.751774 86.330009 -0.581632 94.725057 0.678316 -179.450575 166.846811 -18.412348 -178.028785 -46.609927 -3.504696 -5.982808 76.046901 0.127002 -15.126794 21.454553 0.003113 0.000019 166.947058 9.020252 171.178659 -38.334238 5.460003 -0.150602 88.687262 1.464445 8.888042 21.454547 -0.003088 0.000001 10.416556 1.162435 -1.229095 10.797737 2.434525 -2.344716 10.479629 2.420192 -2.359384 15.405134 -4.592433 -19.106862 -24.058316 11.653897 -25.531104 -171.453958 -72.877736 -10.174142 22.588363 63.474740 31.120515 -81.334154 -11.363376 2.760762 -6.064261 -7.868310 50.576349 -173.789866 74.653664 7.828574 -16.990791 -49.420806 -16.195415 -76.430055 13.215146 -2.637017 0.773397 0.271815 -63.333372 
-291.012091 0.000000 522.844811 0.000000 47.254108 0.000000 -1.784004 86.468140 -0.601623 94.592347 0.956891 -179.339155 166.455822 -18.716901 -178.617780 -47.071098 -3.517369 -5.737859 75.653565 -0.131813 -15.222967 21.454555 0.003114 0.000017 167.327094 9.165696 171.559927 -37.275289 5.580713 -0.275457 87.776823 1.511734 8.295645 21.454545 -0.003082 0.000002 10.419226 1.247663 -1.301587 10.800058 2.611392 -2.481507 10.481933 2.596228 -2.497240 15.118395 -4.535151 -18.693490 -24.194483 11.521832 -25.059230 -171.839308 -72.868737 -9.778343 21.200951 63.360808 30.926266 -81.446317 -11.261375 2.759284 -6.707743 -7.871660 50.656507 -172.742614 74.528206 8.900404 -16.216570 -49.735411 -15.685511 -76.459513 13.262815 -2.641878 0.806886 0.329343 -62.703834 
-291.218579 0.000000 522.509182 0.000000 47.103547 0.000000 -1.929475 86.703526 -0.665465 94.182556 1.064889 -178.981114 165.110311 -19.155799 -179.210181 -48.302547 -3.738329 -4.867527 74.284597 -0.797363 -14.690269 21.454558 0.003110 0.000018 167.589059 9.524764 172.376168 -35.902429 5.421740 -0.492255 86.723237 1.702260 8.080132 21.454547 -0.003086 0.000002 10.386557 1.321627 -1.407172 10.730871 2.768086 -2.686306 10.412754 2.751683 -2.702985 14.857507 -4.718622 -18.399810 -24.173615 11.627222 -24.801562 -172.655167 -72.724410 -8.939610 19.220303 62.998456 30.162051 -81.587515 -11.207923 2.756814 -6.980900 -7.659232 50.647687 -171.596256 74.218517 10.073501 -15.460310 -49.870562 -15.305874 -76.358591 13.220782 -2.634577 0.514872 0.968294 -61.389143 
